<?xml version="1.0" encoding="utf-8"?>
<!-- Generator: Adobe Illustrator 24.0.1, SVG Export Plug-In . SVG Version: 6.00 Build 0)  -->
<svg version="1.1" id="Layer_1" xmlns="http://www.w3.org/2000/svg" xmlns:xlink="http://www.w3.org/1999/xlink" x="0px" y="0px"
	 viewBox="0 0 800 800" enable-background="new 0 0 800 800" xml:space="preserve">
<rect width="800" height="800"/>
<g>
	<g>
		<path fill="#FFFFFF" d="M115.1,368.8c0,7-10.3,7-10.3,0C104.8,361.8,115.1,361.8,115.1,368.8z M113.9,378.6v43.7h-7.5v-39.6
			L113.9,378.6z"/>
		<path fill="#FFFFFF" d="M128.4,382.7l7.5-4.1v43.7h-7.5V382.7z M149.1,379.9c20.4,0,19.7,15.4,19.7,27.3v15h-7.5v-15.7
			c-0.1-8.6,0.9-25.2-13-25.2c-7.6,0-10.2,2.2-11.5,3.6C139.3,381.4,144.7,379.9,149.1,379.9z"/>
		<path fill="#FFFFFF" d="M185.2,380.8h20.8v1.3h-14.8v30.5c0,13.5,14.7,7.6,18.8-1.5c-3.5,8.6-9.9,11.6-15.4,11.6
			c-6.1,0-11-3.7-11-9.9v-30.7h-6.8v-1.3h3c10.3,0,11.7-12.9,5.3-12.9C194.1,367.9,197,378.5,185.2,380.8z"/>
		<path fill="#FFFFFF" d="M221,396.1c0.1,11.2,7.6,24.8,19.3,24.8c10.7,0,16.9-10.7,17.4-13.9c-0.9,8-9.8,16.5-21.3,16.5
			c-15.5,0-23-10.6-23-21.8c0-14.8,10.7-21.6,21-21.6c7.8,0,15.4,5.3,18,12.9c0.6,1.7-0.5,3.1-2.5,3.1H221z M221,394.8h24.4
			c-1.1-4-5.3-13.2-12.7-13.2C224.9,381.6,221.3,387.6,221,394.8z"/>
		<path fill="#FFFFFF" d="M263.7,382.7l7.5-4.1v43.7h-7.5V382.7z M286.6,378.8c1,0,2.1,0.2,3.2,0.5c4.6,1.5,2.5,8.7-2.7,7.4
			c-3.1-0.8-3.7-3.7-6.2-3.7c-2,0-5.6,2.2-8.6,6.1C275.2,383.8,280.8,378.8,286.6,378.8z"/>
		<path fill="#FFFFFF" d="M309.8,368.8c0,7-10.3,7-10.3,0C299.5,361.8,309.8,361.8,309.8,368.8z M308.7,378.6v43.7h-7.5v-39.6
			L308.7,378.6z"/>
		<path fill="#FFFFFF" d="M342.5,379.9c15.5,0,22.9,10.6,22.9,21.8c0,11.3-7.5,21.8-22.9,21.8c-15.5,0-23-10.6-23-21.8
			C319.5,390.4,327,379.9,342.5,379.9z M346.4,421.7c19.9,0,12.1-40.1-7.7-40.1C318.7,381.6,326.3,421.7,346.4,421.7z"/>
		<path fill="#FFFFFF" d="M376,382.7l7.5-4.1v43.7H376V382.7z M398.8,378.8c1,0,2.1,0.2,3.2,0.5c4.6,1.5,2.5,8.7-2.7,7.4
			c-3.1-0.8-3.7-3.7-6.2-3.7c-2,0-5.6,2.2-8.6,6.1C387.5,383.8,393,378.8,398.8,378.8z"/>
		<path fill="#FFFFFF" d="M458.8,421.5c5.5,0,9.1-1.9,11.2-5.4c-2.1,4.8-6.9,7.5-14.3,7.5c-14.9,0-21-11-21-21.8
			c0-11,6.3-21.8,21-21.8c7.5,0,12.4,2.5,15.4,6.1v-21.8l7.5-4.1v62.3h-7.5v-23.6c-1.8-9.1-7.5-17.6-16.1-17.6
			C436.5,381.1,440.4,421.5,458.8,421.5z"/>
		<path fill="#FFFFFF" d="M494.9,396.1c0.1,11.2,7.6,24.8,19.3,24.8c10.7,0,16.9-10.7,17.4-13.9c-0.9,8-9.8,16.5-21.3,16.5
			c-15.5,0-23-10.6-23-21.8c0-14.8,10.7-21.6,21-21.6c7.8,0,15.4,5.3,18,12.9c0.6,1.7-0.5,3.1-2.5,3.1H494.9z M494.9,394.8h24.4
			c-1.1-4-5.3-13.2-12.7-13.2C498.8,381.6,495.2,387.6,494.9,394.8z"/>
		<path fill="#FFFFFF" d="M551.8,422.3c7.2,0,15.9-3.4,15.9-9c0-10.9-33-5.9-33-21.6c0-9.5,11.3-11.7,18.8-11.7
			c3.6,0,13.3,1.5,13.3,7c0,1.7-1.7,3.2-3.4,3.2c-4.6,0-3.4-4.5-4.9-6.5c-1.4-1.8-3.4-2.5-6.1-2.5c-5.8,0-13.3,2.4-13.3,7.9
			c0,11,33.4,5.9,33.4,21.8c0,9-10,12.7-20.2,12.7c-5.1,0-17.5-1.1-17.5-7.6c0-1.7,1.7-3,3.4-3c4.7,0,3.4,4.4,4.9,6.4
			C544.5,421.3,548,422.3,551.8,422.3z"/>
		<path fill="#FFFFFF" d="M591.5,368.8c0,7-10.3,7-10.3,0C581.2,361.8,591.5,361.8,591.5,368.8z M590.3,378.6v43.7h-7.5v-39.6
			L590.3,378.6z"/>
		<path fill="#FFFFFF" d="M610.8,410.4c-1.8,0.2-3.6,0.1-3.6,2.3c0,8,37.8-2.3,37.8,14.4c0,8.9-10.5,12.8-21.3,12.8
			c-11,0-22.2-4.1-22.2-11.2c0-3.9,2.6-5.6,5.1-5.6c2.3,0,4.7,1.3,5.4,3.7c-8.8,4-1.3,11.8,13.1,11.8c10.4,0,14.4-4.3,14.4-8.7
			c0-12.7-34.6,0.7-34.6-15.7C604.9,411.5,608.1,409.7,610.8,410.4z M621.7,379.9c12.8,0,18.9,7.7,18.9,15.9
			c0,8.2-6.2,15.9-18.9,15.9c-12.7,0-18.9-7.8-18.9-15.9C602.8,387.6,609.1,379.9,621.7,379.9z M623.8,410.2
			c15.3,0,11.1-28.8-4.2-28.8C604.5,381.4,608.5,410.2,623.8,410.2z M642.4,368.6c0.7,0,1.5,0.1,2.2,0.2c4.1,1.1,3.5,7.5-1.2,7.5
			c-3.1,0-3-4.2-5.1-4.2c-3.3-0.2-6.2,4-4.2,9.8C629.8,374.1,636.6,368.6,642.4,368.6z"/>
		<path fill="#FFFFFF" d="M654.8,382.7l7.5-4.1v43.7h-7.5V382.7z M675.5,379.9c20.4,0,19.7,15.4,19.7,27.3v15h-7.5v-15.7
			c-0.1-8.6,0.9-25.2-13-25.2c-7.6,0-10.2,2.2-11.5,3.6C665.7,381.4,671.2,379.9,675.5,379.9z"/>
	</g>
</g>
</svg>
