<?xml version="1.0" encoding="utf-8"?>
<!-- Generator: Adobe Illustrator 24.0.1, SVG Export Plug-In . SVG Version: 6.00 Build 0)  -->
<svg version="1.1" id="Layer_1" xmlns="http://www.w3.org/2000/svg" xmlns:xlink="http://www.w3.org/1999/xlink" x="0px" y="0px"
	 viewBox="0 0 800 800" enable-background="new 0 0 800 800" xml:space="preserve">
<rect width="800" height="800"/>
<g>
	<g>
		<path fill="#FFFFFF" d="M203.5,305.3c0,9.8-14.5,9.8-14.5,0C189,295.4,203.5,295.4,203.5,305.3z M201.9,319.1v61.5h-10.5v-55.7
			L201.9,319.1z"/>
		<path fill="#FFFFFF" d="M222.2,324.8l10.5-5.7v61.5h-10.5V324.8z M251.3,321c28.8,0,27.7,21.6,27.7,38.5v21.2h-10.5v-22.1
			c-0.1-12.2,1.3-35.5-18.3-35.5c-10.6,0-14.4,3.2-16.2,5C237.5,323,245.3,321,251.3,321z"/>
		<path fill="#FFFFFF" d="M302.2,322.1h29.2v1.9h-20.8v42.9c0,19.1,20.7,10.8,26.5-2.1c-4.9,12-13.9,16.4-21.6,16.4
			c-8.5,0-15.4-5.3-15.4-13.9V324h-9.6v-1.9h4.2c14.5,0,16.5-18.1,7.5-18.1C314.8,304,318.8,319,302.2,322.1z"/>
		<path fill="#FFFFFF" d="M352.6,343.7c0.1,15.8,10.6,34.9,27.2,34.9c15.1,0,23.8-15.1,24.5-19.5c-1.3,11.2-13.8,23.3-29.9,23.3
			c-21.9,0-32.4-15-32.4-30.7c0-20.8,15.1-30.4,29.6-30.4c11,0,21.6,7.5,25.4,18.1c0.8,2.5-0.7,4.3-3.5,4.3H352.6z M352.6,341.9
			h34.4c-1.5-5.6-7.5-18.6-17.9-18.6C358.1,323.3,353,331.7,352.6,341.9z"/>
		<path fill="#FFFFFF" d="M412.8,324.8l10.5-5.7v61.5h-10.5V324.8z M444.9,319.3c1.4,0,2.9,0.2,4.4,0.7c6.5,2.1,3.5,12.3-3.9,10.4
			c-4.3-1.2-5.3-5.3-8.8-5.3c-2.8,0-7.8,3.2-12,8.5C428.9,326.4,436.7,319.3,444.9,319.3z"/>
		<path fill="#FFFFFF" d="M477.6,305.3c0,9.8-14.5,9.8-14.5,0C463.1,295.4,477.6,295.4,477.6,305.3z M476,319.1v61.5h-10.5v-55.7
			L476,319.1z"/>
		<path fill="#FFFFFF" d="M523.6,320.9c21.9,0,32.3,15,32.3,30.7c0,15.9-10.5,30.7-32.3,30.7c-21.9,0-32.4-15-32.4-30.7
			C491.2,335.7,501.8,320.9,523.6,320.9z M529.1,379.8c28,0,17.1-56.5-10.9-56.5C490.1,323.3,500.8,379.8,529.1,379.8z"/>
		<path fill="#FFFFFF" d="M570.8,324.8l10.5-5.7v61.5h-10.5V324.8z M602.9,319.3c1.4,0,2.9,0.2,4.4,0.7c6.5,2.1,3.5,12.3-3.9,10.4
			c-4.3-1.2-5.3-5.3-8.8-5.3c-2.8,0-7.8,3.2-12,8.5C586.9,326.4,594.7,319.3,602.9,319.3z"/>
		<path fill="#FFFFFF" d="M245.7,476.1c7.7,0,12.9-2.7,15.8-7.6c-2.9,6.8-9.7,10.5-20.1,10.5c-20.9,0-29.6-15.4-29.6-30.7
			c0-15.4,8.9-30.7,29.6-30.7c10.5,0,17.4,3.5,21.6,8.5v-30.7l10.5-5.7v87.7H263V444c-2.6-12.9-10.5-24.8-22.7-24.8
			C214.3,419.3,219.9,476.1,245.7,476.1z"/>
		<path fill="#FFFFFF" d="M296.6,440.3c0.1,15.8,10.6,34.9,27.2,34.9c15.1,0,23.8-15.1,24.5-19.5c-1.3,11.2-13.8,23.3-29.9,23.3
			c-21.9,0-32.4-15-32.4-30.7c0-20.8,15.1-30.4,29.6-30.4c11,0,21.6,7.5,25.4,18.1c0.8,2.5-0.7,4.3-3.5,4.3H296.6z M296.6,438.6
			h34.4c-1.5-5.6-7.5-18.6-17.9-18.6C302.1,420,297,428.4,296.6,438.6z"/>
		<path fill="#FFFFFF" d="M376.6,477.2c10.2,0,22.4-4.8,22.4-12.7c0-15.3-46.5-8.3-46.5-30.4c0-13.3,15.9-16.5,26.4-16.5
			c5,0,18.7,2.1,18.7,9.8c0,2.5-2.5,4.4-4.8,4.4c-6.4,0-4.8-6.3-6.9-9.1c-2-2.6-4.8-3.5-8.6-3.5c-8.2,0-18.7,3.4-18.7,11.1
			c0,15.4,47,8.3,47,30.6c0,12.6-14.1,17.9-28.4,17.9c-7.1,0-24.7-1.5-24.7-10.6c0-2.3,2.5-4.2,4.8-4.2c6.5,0,4.8,6.2,6.9,9
			C366.3,475.8,371.3,477.2,376.6,477.2z"/>
		<path fill="#FFFFFF" d="M432.5,402c0,9.8-14.5,9.8-14.5,0C418,392,432.5,392,432.5,402z M430.9,415.8v61.5h-10.5v-55.7
			L430.9,415.8z"/>
		<path fill="#FFFFFF" d="M459.7,460.5c-2.6,0.2-5,0.1-5,3.3c0,11.2,53.2-3.3,53.2,20.3c0,12.5-14.8,18-30,18
			c-15.5,0-31.2-5.7-31.2-15.8c0-5.5,3.6-7.9,7.2-7.9c3.3,0,6.7,1.9,7.6,5.1c-12.4,5.6-1.9,16.6,18.5,16.6
			c14.6,0,20.2-6.1,20.2-12.3c0-17.9-48.7,0.9-48.7-22.1C451.4,462,455.9,459.5,459.7,460.5z M475.1,417.5c18,0,26.6,10.9,26.6,22.4
			c0,11.6-8.8,22.4-26.6,22.4c-17.9,0-26.6-11-26.6-22.4C448.4,428.4,457.3,417.5,475.1,417.5z M478,460.2
			c21.5,0,15.7-40.6-5.8-40.6C450.9,419.6,456.5,460.2,478,460.2z M504.2,401.6c1.1,0,2.1,0.1,3,0.3c5.7,1.5,4.9,10.5-1.8,10.5
			c-4.3,0-4.2-5.8-7.1-6c-4.7-0.2-8.8,5.6-6,13.8C486.4,409.3,496,401.6,504.2,401.6z"/>
		<path fill="#FFFFFF" d="M521.7,421.5l10.5-5.7v61.5h-10.5V421.5z M550.8,417.6c28.8,0,27.7,21.6,27.7,38.5v21.2H568v-22.1
			c-0.1-12.2,1.3-35.5-18.3-35.5c-10.6,0-14.4,3.2-16.2,5C537,419.6,544.7,417.6,550.8,417.6z"/>
	</g>
</g>
</svg>
