<?xml version="1.0" encoding="utf-8"?>
<!-- Generator: Adobe Illustrator 24.0.1, SVG Export Plug-In . SVG Version: 6.00 Build 0)  -->
<svg version="1.1" id="Layer_1" xmlns="http://www.w3.org/2000/svg" xmlns:xlink="http://www.w3.org/1999/xlink" x="0px" y="0px"
	 viewBox="0 0 800 800" enable-background="new 0 0 800 800" xml:space="preserve">
<g>
	<path d="M134.5,385.4v-1.6h0.1v-67.3h23.1c30.6,0,34.3,27,11.1,33.6c14.1,1.2,21,9.3,21,17.5c0,8.9-8.2,17.7-24.5,17.7H134.5z
		 M157.1,350.1c22.5,0,22.5-32,0-32h-13.1v32H157.1z M164.2,383.8c19.6,0,19.7-32.2,0-32.2h-20.2v32.2H164.2z"/>
	<path d="M248.7,378.4c-0.8,1.6-8.4,5.4-27.2,5.4h-13.6v-32.1v-1.6v-32.1h10.8c15.1,0,24.7,2.3,26,4.4c0.2,0.2,1,0.3,1,0.3l-1.3-6.3
		h-45.9v68.8h48.3l2.8-7.3C249.5,378.1,248.8,378.1,248.7,378.4z"/>
	<path d="M326.1,370.8c-5.4,9.8-13.7,16-30.1,16c-28.3,0-42.6-18-42.6-35.9c0-23,18.9-35.3,40.4-35.3c10,0,20.3,5.4,20.3,12.3
		c0,2.6-1.6,4.5-4.2,4.5c-2.3,0-5.4-1.3-5.4-4.4c0-8.5-8.8-10.7-13.7-10.7c-43.3,0-32.6,67.3,10.5,67.3
		C312.4,384.6,320.3,378.6,326.1,370.8z"/>
	<path d="M330.8,316.5h9.4v36.7l26.8-23.3c9.1-8,6.8-13.4,6.8-13.4h10.2L350,346.9l10.7-0.1l29.7,38.5h-12.1l-28.6-38.2l-9.4,8.5
		v29.7h-9.4V316.5z"/>
	<path d="M443.3,345.8l-18.8,39.5h-1.8l-30.3-68.8H403l25.1,57.8l14.4-30.5l-12-27.3H441l6.9,16l7.6-16h1.9l-8.6,18l17.3,39.8
		l20.6-43.3c4.3-9.2,1.6-13.2-0.2-13.8c-0.4-0.1-0.4-0.8-0.4-0.8h9.2l-32.6,68.8h-1.8L443.3,345.8z"/>
	<path d="M502.5,316.5h9.4v68.8h-9.4V316.5z"/>
	<path d="M522.4,316.5h33.4v68.8h-9.4v-67.3h-2c-20.9,0-21,4-24.4,7.1c-0.1,0.3-0.7,0.3-0.7,0.3L522.4,316.5z M546.4,318.1v-1.6
		h33.4l3,8.9c0,0-0.6,0-0.7-0.3c-1.6-1.7-3.4-7.1-24.4-7.1H546.4z"/>
	<path d="M590.2,316.5h9.4v33.6h45.5v-33.6h9.4v68.8h-9.4v-33.6h-45.5v33.6h-9.4V316.5z"/>
	<g>
		<rect x="203.1" y="350" width="33.6" height="1.6"/>
	</g>
	<path d="M134.5,482.6v-1.9h0.1v-79.2h27.2c36,0,40.4,31.8,13.1,39.6c16.6,1.4,24.8,11,24.8,20.6c0,10.4-9.6,20.8-28.8,20.8H134.5z
		 M161.1,441.1c26.5,0,26.5-37.6,0-37.6h-15.4v37.6H161.1z M169.5,480.8c23,0,23.1-37.8,0-37.8h-23.7v37.8H169.5z"/>
	<path d="M292.5,482.6h-12.4l-16.2-30.4h-41.7l-5.8,10.9c-6.1,11.5-3.6,17.9-1.4,18.6c0.3,0.1,0.3,0.9,0.3,0.9h-11.5l43.2-81h2.1
		L292.5,482.6z M262.9,450.3l-19.8-37.2l-19.8,37.2H262.9z"/>
	<path d="M328.4,444.8c-1.3,0.1-2.7,0.1-4.1,0.1h-12v37.7h-11.1v-81h23.1c43.9,0,46.2,38.8,7.1,42.9l10.4,0.3l29.1,37.7h-14.4
		L328.4,444.8z M321.3,403.5l-9,0.1V443h8.4C355.8,443,356,403.9,321.3,403.5z"/>
	<path d="M406.6,444.8c-1.3,0.1-2.7,0.1-4.1,0.1h-12v37.7h-11.1v-81h23.1c43.9,0,46.2,38.8,7.1,42.9l10.4,0.3l29.1,37.7h-14.4
		L406.6,444.8z M399.5,403.5l-9,0.1V443h8.4C434,443,434.3,403.9,399.5,403.5z"/>
	<path d="M545.9,442.1c0,21.1-16.7,42.2-50.1,42.2c-33.3,0-50.1-21.2-50.1-42.2c0-21.2,16.8-42.2,50.1-42.2
		C529.3,399.9,545.9,420.9,545.9,442.1z M489.7,402.5c-50.9,0-38.4,79.2,12.4,79.2C552.9,481.7,540.5,402.5,489.7,402.5z"/>
	<path d="M604.4,436.1l-22.1,46.5h-2.1l-35.8-81.4l12.3-0.1l29.7,68.6l16.9-35.9l-14.1-32.2h12.4l8.1,18.9l8.9-18.9h2.2l-10.1,21.2
		l20.4,46.9l24.2-50.9c5.1-10.9,1.9-15.5-0.2-16.2c-0.5-0.1-0.5-0.9-0.5-0.9h10.9l-38.4,81H625L604.4,436.1z"/>
	<g>
		<polygon points="494.5,399.9 494.5,401.5 556.9,401.5 556.2,399.9 		"/>
	</g>
	<g>
		<rect x="584.6" y="340.1" width="75.6" height="1.6"/>
	</g>
	<g>
		<g>
			<rect x="210.4" y="460.6" width="75.6" height="1.6"/>
		</g>
	</g>
</g>
</svg>
