<?xml version="1.0" encoding="utf-8"?>
<!-- Generator: Adobe Illustrator 24.0.1, SVG Export Plug-In . SVG Version: 6.00 Build 0)  -->
<svg version="1.1" id="Layer_1" xmlns="http://www.w3.org/2000/svg" xmlns:xlink="http://www.w3.org/1999/xlink" x="0px" y="0px"
	 viewBox="0 0 800 800" enable-background="new 0 0 800 800" xml:space="preserve">
<rect width="800" height="800"/>
<g>
	<g>
		<path fill="#FFFFFF" d="M65.5,422.8v-1h0.1V377H81c20.3,0,22.8,18,7.4,22.4c9.4,0.8,14,6.2,14,11.6c0,5.9-5.4,11.8-16.3,11.8H65.5
			z M80.6,399.3c15,0,15-21.3,0-21.3h-8.7v21.3H80.6z M85.3,421.7c13,0,13.1-21.4,0-21.4H71.9v21.4H85.3z"/>
		<path fill="#FFFFFF" d="M141.4,418.1c-0.5,1-5.6,3.6-18.1,3.6h-9v-21.3v-1V378h7.2c10.1,0,16.4,1.5,17.3,2.9
			c0.1,0.1,0.7,0.2,0.7,0.2l-0.9-4.2H108v45.8h32.1l1.8-4.8C142,417.9,141.5,417.9,141.4,418.1z"/>
		<path fill="#FFFFFF" d="M192.9,413.1c-3.6,6.5-9.1,10.7-20,10.7c-18.8,0-28.3-12-28.3-23.9c0-15.3,12.6-23.5,26.9-23.5
			c6.7,0,13.5,3.6,13.5,8.2c0,1.7-1,3-2.8,3c-1.5,0-3.6-0.9-3.6-2.9c0-5.6-5.8-7.1-9.1-7.1c-28.8,0-21.7,44.7,7,44.7
			C183.8,422.2,189,418.3,192.9,413.1z"/>
		<path fill="#FFFFFF" d="M196,377h6.3v24.4l17.9-15.5c6.1-5.3,4.5-8.9,4.5-8.9h6.8l-22.7,20.2l7.1-0.1l19.7,25.6h-8l-19-25.4
			l-6.3,5.6v19.7H196V377z"/>
		<path fill="#FFFFFF" d="M270.9,396.5l-12.5,26.3h-1.2L237,377h7l16.7,38.5l9.5-20.3l-8-18.2h7l4.6,10.7l5-10.7h1.2l-5.7,12
			l11.5,26.5l13.7-28.8c2.9-6.1,1-8.8-0.1-9.2c-0.3-0.1-0.3-0.5-0.3-0.5h6.1l-21.7,45.8h-1.2L270.9,396.5z"/>
		<path fill="#FFFFFF" d="M310.2,377h6.3v45.8h-6.3V377z"/>
		<path fill="#FFFFFF" d="M323.4,377h22.2v45.8h-6.3V378h-1.3c-13.9,0-14,2.7-16.2,4.7c-0.1,0.2-0.5,0.2-0.5,0.2L323.4,377z
			 M339.4,378v-1h22.2l2,6c0,0-0.4,0-0.5-0.2c-1-1.1-2.3-4.7-16.2-4.7H339.4z"/>
		<path fill="#FFFFFF" d="M368.6,377h6.3v22.4h30.3V377h6.3v45.8h-6.3v-22.4h-30.3v22.4h-6.3V377z"/>
		<g>
			<rect x="109.8" y="399.3" fill="#FFFFFF" width="23.6" height="1.1"/>
		</g>
		<g>
			<rect x="364.8" y="392.7" fill="#FFFFFF" width="50.3" height="1.1"/>
		</g>
	</g>
	<g>
		<path fill="#FFFFFF" d="M439.1,422.3v-1h0.1v-44h15.1c20,0,22.5,17.7,7.3,22c9.2,0.8,13.8,6.1,13.8,11.5c0,5.8-5.3,11.6-16,11.6
			H439.1z M453.9,399.2c14.7,0,14.7-20.9,0-20.9h-8.6v20.9H453.9z M458.5,421.3c12.8,0,12.9-21.1,0-21.1h-13.2v21.1H458.5z"/>
		<path fill="#FFFFFF" d="M527,422.3h-6.9l-9-16.9h-23.2l-3.2,6.1c-3.4,6.4-2,10-0.8,10.4c0.2,0.1,0.2,0.5,0.2,0.5h-6.4l24-45.1h1.2
			L527,422.3z M510.5,404.3l-11-20.7l-11,20.7H510.5z"/>
		<path fill="#FFFFFF" d="M546.9,401.2c-0.7,0.1-1.5,0.1-2.3,0.1H538v21h-6.2v-45.1h12.9c24.4,0,25.7,21.6,3.9,23.9l5.8,0.2l16.2,21
			h-8L546.9,401.2z M543,378.2l-5,0.1v22h4.7C562.2,400.3,562.3,378.5,543,378.2z"/>
		<path fill="#FFFFFF" d="M590.4,401.2c-0.7,0.1-1.5,0.1-2.3,0.1h-6.7v21h-6.2v-45.1h12.9c24.4,0,25.7,21.6,3.9,23.9l5.8,0.2
			l16.2,21h-8L590.4,401.2z M586.5,378.2l-5,0.1v22h4.7C605.7,400.3,605.8,378.5,586.5,378.2z"/>
		<path fill="#FFFFFF" d="M668,399.8c0,11.7-9.3,23.5-27.9,23.5c-18.5,0-27.9-11.8-27.9-23.5c0-11.8,9.3-23.5,27.9-23.5
			C658.7,376.3,668,388,668,399.8z M636.7,377.7c-28.3,0-21.4,44,6.9,44C671.8,421.8,664.9,377.7,636.7,377.7z"/>
		<path fill="#FFFFFF" d="M700.5,396.4l-12.3,25.9H687L667.1,377l6.9-0.1l16.5,38.2l9.4-20l-7.9-17.9h6.9l4.5,10.5l5-10.5h1.2
			L704,389l11.3,26.1l13.5-28.3c2.8-6.1,1-8.6-0.1-9c-0.3-0.1-0.3-0.5-0.3-0.5h6.1l-21.4,45.1h-1.2L700.5,396.4z"/>
		<g>
			<polygon fill="#FFFFFF" points="639.3,376.3 639.3,377.2 674.1,377.2 673.7,376.3 			"/>
		</g>
		<g>
			<g>
				<rect x="481.3" y="410.1" fill="#FFFFFF" width="42.1" height="0.9"/>
			</g>
		</g>
	</g>
</g>
</svg>
