<?xml version="1.0" encoding="utf-8"?>
<!-- Generator: Adobe Illustrator 24.0.1, SVG Export Plug-In . SVG Version: 6.00 Build 0)  -->
<svg version="1.1" id="Layer_1" xmlns="http://www.w3.org/2000/svg" xmlns:xlink="http://www.w3.org/1999/xlink" x="0px" y="0px"
	 viewBox="0 0 800 800" enable-background="new 0 0 800 800" xml:space="preserve">
<g>
	<path d="M132.8,375.9v-1.6h0.1V306h23.5c31.1,0,34.9,27.5,11.3,34.2c14.3,1.2,21.4,9.5,21.4,17.8c0,9-8.3,18-24.9,18H132.8z
		 M155.8,340c22.9,0,22.9-32.5,0-32.5h-13.3V340H155.8z M163,374.3c19.9,0,20-32.7,0-32.7h-20.5v32.7H163z"/>
	<path d="M248.8,368.8c-0.8,1.6-8.5,5.5-27.7,5.5h-13.8v-32.6v-1.6v-32.6h11c15.4,0,25.1,2.3,26.4,4.5c0.2,0.2,1,0.3,1,0.3l-1.3-6.4
		h-46.7v70h49.1l2.8-7.4C249.6,368.5,248.9,368.5,248.8,368.8z"/>
	<path d="M327.5,361.1c-5.5,10-13.9,16.3-30.6,16.3c-28.8,0-43.3-18.3-43.3-36.5c0-23.4,19.2-35.9,41.1-35.9
		c10.2,0,20.6,5.5,20.6,12.5c0,2.6-1.6,4.6-4.3,4.6c-2.3,0-5.5-1.3-5.5-4.5c0-8.6-8.9-10.9-13.9-10.9c-44,0-33.2,68.4,10.7,68.4
		C313.6,375.1,321.6,369,327.5,361.1z"/>
	<path d="M332.3,306h9.6v37.3l27.3-23.7c9.3-8.1,6.9-13.6,6.9-13.6h10.4l-34.7,30.9l10.9-0.1l30.2,39.2h-12.3l-29.1-38.8l-9.6,8.6
		v30.2h-9.6V306z"/>
	<path d="M446.7,335.7l-19.1,40.2h-1.8L395,306h10.7l25.5,58.8l14.6-31L433.6,306h10.7l7,16.3L459,306h1.9l-8.7,18.3l17.6,40.5
		l20.9-44c4.4-9.4,1.6-13.4-0.2-14c-0.4-0.1-0.4-0.8-0.4-0.8h9.4l-33.2,70h-1.8L446.7,335.7z"/>
	<path d="M506.9,306h9.6v70h-9.6V306z"/>
	<path d="M527.1,306h34v70h-9.6v-68.4h-2c-21.3,0-21.4,4.1-24.8,7.2c-0.1,0.3-0.7,0.3-0.7,0.3L527.1,306z M551.4,307.6V306h34
		l3.1,9.1c0,0-0.6,0-0.7-0.3c-1.6-1.7-3.5-7.2-24.8-7.2H551.4z"/>
	<path d="M596,306h9.6v34.2h46.3V306h9.6v70h-9.6v-34.2h-46.3v34.2H596V306z"/>
	<g>
		<rect x="202.5" y="340" width="34.2" height="1.6"/>
	</g>
	<g>
		<rect x="132.8" y="493.3" width="534.5" height="1.6"/>
	</g>
	<g>
		<rect x="590.3" y="329.9" width="76.9" height="1.6"/>
	</g>
	<g>
		<path d="M132.8,474v-1.9h0.1v-79.7h27.4c36.2,0,40.7,32,13.2,39.8c16.7,1.4,24.9,11.1,24.9,20.7c0,10.5-9.7,21-29,21H132.8z
			 M159.6,432.2c26.7,0,26.7-37.9,0-37.9h-15.5v37.9H159.6z M167.9,472.1c23.2,0,23.3-38.1,0-38.1h-23.9v38.1H167.9z"/>
		<path d="M291.8,474h-12.5L263,443.3h-41.9l-5.8,10.9c-6.2,11.5-3.6,18.1-1.4,18.8c0.3,0.1,0.3,0.9,0.3,0.9h-11.5l43.4-81.5h2.1
			L291.8,474z M261.9,441.5L242,404.1l-19.9,37.4H261.9z"/>
		<path d="M327.9,435.9c-1.3,0.1-2.7,0.1-4.1,0.1h-12.1v38h-11.2v-81.5h23.3c44.1,0,46.5,39,7.1,43.2l10.5,0.3l29.2,38h-14.4
			L327.9,435.9z M320.8,394.3l-9.1,0.1v39.7h8.5C355.5,434.1,355.7,394.8,320.8,394.3z"/>
		<path d="M406.6,435.9c-1.3,0.1-2.7,0.1-4.1,0.1h-12.1v38h-11.2v-81.5h23.3c44.1,0,46.5,39,7.1,43.2l10.5,0.3l29.2,38h-14.4
			L406.6,435.9z M399.5,394.3l-9.1,0.1v39.7h8.5C434.2,434.1,434.4,394.8,399.5,394.3z"/>
		<path d="M546.8,433.2c0,21.2-16.8,42.5-50.4,42.5c-33.5,0-50.4-21.3-50.4-42.5c0-21.3,16.9-42.5,50.4-42.5
			C530.1,390.7,546.8,411.9,546.8,433.2z M490.2,393.4c-51.3,0-38.7,79.7,12.5,79.7C553.8,473,541.4,393.4,490.2,393.4z"/>
		<path d="M605.6,427.1L583.4,474h-2.1l-36-81.9l12.4-0.1l29.9,69l17-36.1l-14.2-32.4h12.5l8.2,19l9-19h2.2l-10.1,21.3l20.5,47.2
			l24.3-51.3c5.1-10.9,1.9-15.6-0.2-16.3c-0.5-0.1-0.5-0.9-0.5-0.9h10.9L628.5,474h-2.1L605.6,427.1z"/>
		<g>
			<polygon points="495.1,390.7 495.1,392.3 557.8,392.3 557.2,390.7 			"/>
		</g>
		<g>
			<g>
				<rect x="209.2" y="451.8" width="76.1" height="1.6"/>
			</g>
		</g>
	</g>
</g>
</svg>
